# Blender v2.79 (sub 0) OBJ File: 'carre.blend'
# www.blender.org
mtllib menuitem.mtl
o Plane
v -1.000000 -1.000000 1.000000
v 1.000000 -1.000000 1.000000
v -1.000000 1.000000 1.000000
v 1.000000 1.000000 1.000000
v -1.000000 -1.000000 -1.000000
v 1.000000 -1.000000 -1.000000
v -1.000000 1.000000 -1.000000
v 1.000000 1.000000 -1.000000
vt 0.250088 0.500000
vt 0.500029 0.500000
vt 0.500029 0.749941
vt 0.250088 0.749941
vt 0.750088 0.750000
vt 0.750088 0.500059
vt 1.000029 0.500059
vt 1.000029 0.750000
vt 0.499971 0.750000
vt 0.499971 0.999941
vt 0.250029 0.999941
vt 0.250029 0.750000
vt 0.250088 0.250059
vt 0.500029 0.250059
vt 0.500088 0.500059
vt 0.750029 0.500058
vt 0.750029 0.750000
vt 0.500088 0.750000
vt 0.249912 0.749941
vt -0.000029 0.749941
vt -0.000029 0.500000
vt 0.249912 0.500000
vn -0.0000 0.0000 1.0000
vn 0.0000 -0.0000 -1.0000
vn -0.0000 1.0000 -0.0000
vn 0.0000 -1.0000 0.0000
vn 1.0000 0.0000 -0.0000
vn -1.0000 -0.0000 0.0000
usemtl Material.001
s off
f 1/1/1 2/2/1 4/3/1 3/4/1
f 5/5/2 7/6/2 8/7/2 6/8/2
f 4/9/3 8/10/3 7/11/3 3/12/3
f 1/1/4 5/13/4 6/14/4 2/2/4
f 2/15/5 6/16/5 8/17/5 4/18/5
f 3/19/6 7/20/6 5/21/6 1/22/6
