# Blender v2.79 (sub 0) OBJ File: 'menu.blend'
# www.blender.org
mtllib menu.mtl
o Plane
v -4.550201 -0.692516 3.167267
v -4.741832 -3.063124 3.167266
v -5.013467 2.275821 3.167267
v 4.980120 -1.787276 3.167266
v -4.183611 -3.038375 3.167266
v -4.158711 -3.237123 3.167266
v -1.699405 -2.837247 3.167266
v 4.321720 -2.367532 3.167266
v 4.336642 -1.907794 3.167266
v 4.507957 3.201940 3.167267
v -1.222528 2.631128 3.167267
v -4.224257 2.841383 3.167267
v -4.252503 2.321547 3.167267
vt 0.044012 0.394400
vt 0.024847 0.027720
vt 0.080673 0.031549
vt 0.083163 0.000807
vt 0.329111 0.062659
vt 0.931266 0.135313
vt 0.932758 0.206424
vt 0.997111 0.225066
vt 0.949891 0.996785
vt 0.376802 0.908493
vt 0.076608 0.941015
vt 0.073783 0.860608
vt -0.002318 0.853535
vn -0.0000 -0.0000 1.0000
usemtl Material.001
s off
f 1/1/1 2/2/1 5/3/1 6/4/1 7/5/1 8/6/1 9/7/1 4/8/1 10/9/1 11/10/1 12/11/1 13/12/1 3/13/1
