# Blender v2.79 (sub 0) OBJ File: 'skybox.blend'
# www.blender.org
mtllib skybox.mtl
o Plane
v -1.000000 -1.000000 1.000000
v 1.000000 -1.000000 1.000000
v -1.000000 1.000000 1.000000
v 1.000000 1.000000 1.000000
v -1.000000 -1.000000 -1.000000
v 1.000000 -1.000000 -1.000000
v -1.000000 1.000000 -1.000000
v 1.000000 1.000000 -1.000000
vt 0.250088 0.333340
vt 0.250088 0.666582
vt 0.500029 0.666582
vt 0.500029 0.333340
vt 0.999998 0.333421
vt 0.750057 0.333421
vt 0.750057 0.666662
vt 0.999998 0.666662
vt 0.499971 0.666660
vt 0.250029 0.666660
vt 0.250029 0.999902
vt 0.499971 0.999902
vt 0.500029 0.000098
vt 0.250088 0.000098
vt 0.500088 0.333418
vt 0.500088 0.666660
vt 0.750030 0.666660
vt 0.750029 0.333418
vt 0.249956 0.666569
vt 0.249956 0.333353
vt 0.000034 0.333353
vt 0.000034 0.666569
vn 0.0000 -0.0000 -1.0000
vn -0.0000 0.0000 1.0000
vn 0.0000 -1.0000 0.0000
vn -0.0000 1.0000 -0.0000
vn -1.0000 -0.0000 0.0000
vn 1.0000 0.0000 -0.0000
usemtl Material.001
s off
f 1/1/1 3/2/1 4/3/1 2/4/1
f 5/5/2 6/6/2 8/7/2 7/8/2
f 4/9/3 3/10/3 7/11/3 8/12/3
f 1/1/4 2/4/4 6/13/4 5/14/4
f 2/15/5 4/16/5 8/17/5 6/18/5
f 3/19/6 1/20/6 5/21/6 7/22/6
