# Blender v2.79 (sub 0) OBJ File: 'coin.blend'
# www.blender.org
mtllib coin.mtl
o Circle
v 0.000000 0.800000 -0.160000
v -0.400000 0.692820 -0.160000
v -0.692820 0.400000 -0.160000
v -0.800000 0.000000 -0.160000
v -0.692820 -0.400000 -0.160000
v -0.400000 -0.692820 -0.160000
v -0.000000 -0.800000 -0.160000
v 0.400000 -0.692820 -0.160000
v 0.692820 -0.400000 -0.160000
v 0.800000 -0.000000 -0.160000
v 0.692820 0.400000 -0.160000
v 0.400000 0.692820 -0.160000
v 0.000000 0.800000 0.160000
v -0.400000 0.692820 0.160000
v -0.692820 0.400000 0.160000
v -0.800000 0.000000 0.160000
v -0.692820 -0.400000 0.160000
v -0.400000 -0.692820 0.160000
v -0.000000 -0.800000 0.160000
v 0.400000 -0.692820 0.160000
v 0.692820 -0.400000 0.160000
v 0.800000 -0.000000 0.160000
v 0.692820 0.400000 0.160000
v 0.400000 0.692820 0.160000
vt 0.458173 0.559109
vt 0.428448 0.559109
vt 0.428448 0.527414
vt 0.458173 0.527414
vt 0.458173 0.400635
vt 0.428448 0.400635
vt 0.428448 0.368940
vt 0.458173 0.368940
vt 0.458173 0.464024
vt 0.428448 0.464024
vt 0.428448 0.432329
vt 0.458173 0.432329
vt 0.458173 0.685889
vt 0.428448 0.685889
vt 0.428448 0.654194
vt 0.458173 0.654194
vt 0.458173 0.590804
vt 0.428448 0.590804
vt 0.458173 0.495719
vt 0.428448 0.495719
vt 0.458173 0.337245
vt 0.428448 0.337245
vt 0.428448 0.305550
vt 0.458173 0.305550
vt 0.458173 0.622499
vt 0.428448 0.622499
vt 0.276500 0.113017
vt 0.501844 0.052636
vt 0.727187 0.113017
vt 0.892149 0.277980
vt 0.952530 0.503323
vt 0.892150 0.728666
vt 0.727187 0.893628
vt 0.501844 0.954009
vt 0.276501 0.893629
vt 0.111538 0.728666
vt 0.051157 0.503323
vt 0.111538 0.277979
vt 0.277497 0.897348
vt 0.112534 0.732384
vt 0.052154 0.507041
vt 0.112534 0.281698
vt 0.277497 0.116736
vt 0.502840 0.056355
vt 0.728184 0.116736
vt 0.893146 0.281699
vt 0.953527 0.507041
vt 0.893146 0.732385
vt 0.728184 0.897347
vt 0.502840 0.957728
vn -0.7071 -0.7071 0.0000
vn 0.2588 0.9659 0.0000
vn -0.7071 0.7071 0.0000
vn 0.9659 -0.2588 0.0000
vn -0.2588 -0.9659 0.0000
vn -0.9659 0.2588 0.0000
vn 0.9659 0.2588 0.0000
vn 0.2588 -0.9659 0.0000
vn -0.9659 -0.2588 -0.0000
vn 0.7071 0.7071 0.0000
vn -0.2588 0.9659 0.0000
vn 0.7071 -0.7071 0.0000
vn 0.0000 0.0000 -1.0000
vn 0.0000 -0.0000 1.0000
usemtl Material.001
s off
f 6/1/1 18/2/1 17/3/1 5/4/1
f 1/5/2 13/6/2 24/7/2 12/8/2
f 3/9/3 15/10/3 14/11/3 2/12/3
f 10/13/4 22/14/4 21/15/4 9/16/4
f 7/17/5 19/18/5 18/2/5 6/1/5
f 4/19/6 16/20/6 15/10/6 3/9/6
f 11/21/7 23/22/7 22/23/7 10/24/7
f 8/25/8 20/26/8 19/18/8 7/17/8
f 5/4/9 17/3/9 16/20/9 4/19/9
f 12/8/10 24/7/10 23/22/10 11/21/10
f 2/12/11 14/11/11 13/6/11 1/5/11
f 9/16/12 21/15/12 20/26/12 8/25/12
f 2/27/13 1/28/13 12/29/13 11/30/13 10/31/13 9/32/13 8/33/13 7/34/13 6/35/13 5/36/13 4/37/13 3/38/13
f 14/39/14 15/40/14 16/41/14 17/42/14 18/43/14 19/44/14 20/45/14 21/46/14 22/47/14 23/48/14 24/49/14 13/50/14
