# Blender v2.79 (sub 0) OBJ File: 'coin2.blend'
# www.blender.org
mtllib prism.mtl
o Cube
v 0.700000 0.000000 -0.692965
v -0.000000 -0.989949 -0.000000
v -0.700000 0.000000 -0.692965
v 0.000000 0.989949 0.000000
v 0.700000 -0.000000 0.692965
v -0.700000 0.000000 0.692965
vt 0.736939 0.121628
vt 0.496793 0.519433
vt 0.256647 0.121628
vt 0.497396 0.522149
vt 0.258879 0.922669
vt 0.258879 0.121629
vt 0.256647 0.917237
vt 0.736939 0.917237
vt 0.735914 0.922669
vt 0.735914 0.121628
vn 0.7079 0.0000 -0.7063
vn 0.0000 -1.0000 0.0000
vn -0.7079 0.0000 -0.7063
vn 0.0000 1.0000 0.0000
vn -0.7079 0.0000 0.7063
vn 0.7079 0.0000 0.7063
usemtl Material
s 1
f 1/1/1 2/2/2 3/3/3
f 4/4/4 6/5/5 5/6/6
f 3/3/3 2/2/2 6/7/5
f 2/2/2 5/8/6 6/7/5
f 6/5/5 4/4/4 3/9/3
f 4/4/4 1/10/1 3/9/3
f 4/4/4 5/6/6 1/10/1
f 2/2/2 1/1/1 5/8/6
