# Blender v2.79 (sub 0) OBJ File: 'MOTHERFUCKING HEXAGONE.blend'
# www.blender.org
mtllib frontmenu.mtl
o Circle_Circle.001
v 0.002957 -0.999963 -0.005291
v -0.497025 -0.512085 0.860659
v 0.502957 -0.506171 0.860712
v 1.002939 -0.494049 -0.005239
v 0.502939 -0.487841 -0.871242
v -0.497043 -0.493755 -0.871294
v -0.997025 -0.505877 -0.005344
v -0.002957 0.999963 0.005291
v -0.502940 0.487841 0.871242
v 0.497043 0.493755 0.871294
v 0.997026 0.505877 0.005344
v 0.497025 0.512085 -0.860659
v -0.502957 0.506171 -0.860712
v -1.002940 0.494049 0.005239
vt 0.500050 0.199699
vt 0.500050 0.000562
vt 0.664769 0.100130
vt 0.335331 0.100130
vt 0.335331 0.299268
vt 0.500050 0.398836
vt 0.664769 0.299268
vt 0.499910 0.800427
vt 0.499910 0.601274
vt 0.664321 0.700851
vt 0.664321 0.900003
vt 0.499910 0.999579
vt 0.335499 0.900003
vt 0.335499 0.700851
vt 0.333379 0.399048
vt 0.500046 0.399048
vt 0.500046 0.600899
vt 0.333379 0.600899
vt 0.666713 0.399048
vt 0.666713 0.600899
vt 0.166712 0.399048
vt 0.166712 0.600899
vt 0.000045 0.399048
vt 0.000045 0.600899
vt 0.833380 0.399048
vt 1.000047 0.399048
vt 1.000047 0.600899
vt 0.833380 0.600899
vn 0.0051 -0.8700 0.4931
vn 0.4381 -0.8660 0.2408
vn 0.4362 -0.8621 -0.2580
vn 0.0051 -0.8620 -0.5068
vn -0.4278 -0.8659 -0.2591
vn -0.4298 -0.8699 0.2419
vn -0.0051 0.8620 0.5068
vn 0.4278 0.8659 0.2591
vn 0.4298 0.8699 -0.2419
vn -0.0051 0.8700 -0.4931
vn -0.4381 0.8660 -0.2408
vn -0.4362 0.8621 0.2580
vn -0.8660 -0.0104 0.4999
vn 0.0000 -0.0106 0.9999
vn -0.8660 0.0002 -0.5000
vn -0.0000 0.0106 -0.9999
vn 0.8660 0.0104 -0.4999
vn 0.8660 -0.0002 0.5000
usemtl None
s off
f 1/1/1 3/2/1 2/3/1
f 1/1/2 4/4/2 3/2/2
f 1/1/3 5/5/3 4/4/3
f 1/1/4 6/6/4 5/5/4
f 1/1/5 7/7/5 6/6/5
f 1/1/6 2/3/6 7/7/6
f 8/8/7 9/9/7 10/10/7
f 8/8/8 10/10/8 11/11/8
f 8/8/9 11/11/9 12/12/9
f 8/8/10 12/12/10 13/13/10
f 8/8/11 13/13/11 14/14/11
f 8/8/12 14/14/12 9/9/12
f 7/15/13 2/16/13 9/17/13 14/18/13
f 2/16/14 3/19/14 10/20/14 9/17/14
f 6/21/15 7/15/15 14/18/15 13/22/15
f 5/23/16 6/21/16 13/22/16 12/24/16
f 4/25/17 5/26/17 12/27/17 11/28/17
f 3/19/18 4/25/18 11/28/18 10/20/18
