# Blender v2.79 (sub 0) OBJ File: 'MOTHERFUCKING HEXAGONE.blend'
# www.blender.org
mtllib frontmenu.mtl
o Circle_Circle.001
v -0.002955 -0.500846 0.005288
v -0.502973 -0.500846 0.871302
v 0.497027 -0.500846 0.871324
v 0.997045 -0.500846 0.005309
v 0.497063 -0.500846 -0.860727
v -0.502937 -0.500846 -0.860748
v -1.002955 -0.500846 0.005266
v -0.002955 0.499154 0.005288
v -0.502973 0.499154 0.871303
v 0.497027 0.499154 0.871324
v 0.997045 0.499154 0.005309
v 0.497063 0.499154 -0.860727
v -0.502937 0.499154 -0.860748
v -1.002955 0.499154 0.005266
vt 0.500174 0.301452
vt 0.500174 0.135706
vt 0.643586 0.218579
vt 0.356763 0.218579
vt 0.356763 0.384325
vt 0.500174 0.467198
vt 0.643586 0.384325
vt 0.499460 0.798795
vt 0.499460 0.633710
vt 0.643980 0.716252
vt 0.643980 0.881337
vt 0.499460 0.963880
vt 0.354940 0.881337
vt 0.354940 0.716252
vt 0.333234 0.468274
vt 0.499367 0.468273
vt 0.499367 0.634927
vt 0.333234 0.634927
vt 0.665501 0.468273
vt 0.665501 0.634926
vt 0.167100 0.468274
vt 0.167100 0.634927
vt 0.000967 0.468274
vt 0.000967 0.634927
vt 0.831635 0.468273
vt 0.997768 0.468273
vt 0.997768 0.634926
vt 0.831635 0.634926
vn 0.0000 -1.0000 0.0000
vn 0.0000 1.0000 0.0000
vn -0.8660 0.0000 0.5000
vn -0.0000 -0.0000 1.0000
vn -0.8660 -0.0000 -0.5000
vn 0.0000 0.0000 -1.0000
vn 0.8660 -0.0000 -0.5000
vn 0.8660 -0.0000 0.5000
usemtl None
s off
f 1/1/1 3/2/1 2/3/1
f 1/1/1 4/4/1 3/2/1
f 1/1/1 5/5/1 4/4/1
f 1/1/1 6/6/1 5/5/1
f 1/1/1 7/7/1 6/6/1
f 1/1/1 2/3/1 7/7/1
f 8/8/2 9/9/2 10/10/2
f 8/8/2 10/10/2 11/11/2
f 8/8/2 11/11/2 12/12/2
f 8/8/2 12/12/2 13/13/2
f 8/8/2 13/13/2 14/14/2
f 8/8/2 14/14/2 9/9/2
f 7/15/3 2/16/3 9/17/3 14/18/3
f 2/16/4 3/19/4 10/20/4 9/17/4
f 6/21/5 7/15/5 14/18/5 13/22/5
f 5/23/6 6/21/6 13/22/6 12/24/6
f 4/25/7 5/26/7 12/27/7 11/28/7
f 3/19/8 4/25/8 11/28/8 10/20/8
